<svg width="326" height="75" viewBox="0 0 326 75" fill="none" xmlns="http://www.w3.org/2000/svg">
  <rect x="0.5" y="0.5" width="74" height="74" rx="18" fill="url(#paint0_linear_1687_1034)"/>
  <path d="M64.6659 55.5627L64.9265 56.3879C65.0207 56.6863 64.7484 56.9713 64.4459 56.8907L61.6289 56.1395C60.3695 55.8036 59.0717 55.6336 57.7683 55.6336C56.675 55.6336 55.5851 55.7532 54.5179 55.9903L52.8761 56.3552L49.6282 56.8549C48.6677 57.0026 47.6975 57.0768 46.7257 57.0768H46.4423C44.7274 57.0768 43.0223 56.8204 41.3833 56.3161L41.2183 56.2654C39.8556 55.8461 38.5553 55.2456 37.3524 54.4801C35.9238 53.5711 34.6495 52.44 33.5773 51.1295L33.498 51.0326C32.4705 49.7768 31.6314 48.3778 31.0073 46.88L30.9629 46.7733C30.4192 45.4685 30.0357 44.1026 29.8208 42.7055L29.62 41.4006C29.4887 40.5469 29.4227 39.6845 29.4227 38.8208V38.3141C29.4227 36.4086 29.8001 34.522 30.533 32.763C30.9937 31.6571 31.5905 30.6129 32.3093 29.6544L32.426 29.4988C33.0682 28.6425 33.7948 27.8529 34.5948 27.1418L34.69 27.0572C35.9821 25.9086 37.4395 24.9608 39.0133 24.2454L39.2304 24.1467C40.1475 23.7299 41.0964 23.3873 42.0683 23.1223L42.1316 23.105C43.7548 22.6623 45.4297 22.438 47.1121 22.438C48.5447 22.438 49.9726 22.6006 51.3685 22.9227L52.2957 23.1367C53.4004 23.3916 54.471 23.7766 55.485 24.2836C56.8638 24.9731 58.1225 25.8803 59.2126 26.9704L59.4417 27.1995C60.1149 27.8726 60.7279 28.6033 61.2738 29.3832L61.859 30.2192C62.6033 31.2824 63.2225 32.4279 63.7045 33.6328C64.1815 34.8254 64.521 36.0685 64.7163 37.3381L64.7302 37.4283C65.0045 39.2111 65.0045 41.0254 64.7302 42.8082L64.4224 44.8089C63.4798 48.3438 63.5642 52.0741 64.6659 55.5627Z" fill="url(#paint1_linear_1687_1034)"/>
  <path d="M47.5 49.79C43.1954 49.79 40.5 46.723 40.5 41.8008C40.5 36.8678 43.1954 33.79 47.5 33.79C51.7945 33.79 54.5 36.8678 54.5 41.8008C54.5 46.723 51.7945 49.79 47.5 49.79ZM47.5 47.0876C49.8736 47.0876 51.3922 45.0394 51.3922 41.8008C51.3922 38.5514 49.8736 36.4925 47.5 36.4925C45.1264 36.4925 43.5977 38.5514 43.5977 41.8008C43.5977 45.0394 45.1164 47.0876 47.5 47.0876Z" fill="#44C965"/>
  <path d="M43.7123 32.491C43.112 32.491 42.7715 32.0412 42.7715 31.4191C42.7715 31.1702 42.7984 30.9214 42.8521 30.7013C43.1478 29.3518 44.1603 28.5 45.4238 28.5C46.3646 28.5 47.0277 28.9307 47.8251 29.6963C48.4255 30.2706 48.8287 30.5673 49.2588 30.5673C49.7875 30.5673 50.0473 30.2227 50.2265 29.4092C50.3251 28.9307 50.6208 28.6244 51.1047 28.6244C51.6692 28.6244 52.0097 29.0934 52.0097 29.6963C52.0097 29.9452 51.9828 30.194 51.929 30.4237C51.6423 31.7158 50.7014 32.6059 49.4291 32.6059C48.5241 32.6059 47.8431 32.2039 46.8216 31.2372C46.3915 30.8353 46.051 30.5386 45.594 30.5386C45.0295 30.5386 44.7249 30.9214 44.5636 31.7062C44.474 32.1752 44.1783 32.491 43.7123 32.491Z" fill="#44C965"/>
  <g filter="url(#filter0_d_1687_1034)">
    <path d="M9.33411 47.6247L9.07353 48.4499C8.97927 48.7484 9.25163 49.0333 9.55408 48.9527L12.3711 48.2015C13.6305 47.8656 14.9283 47.6956 16.2317 47.6956C17.325 47.6956 18.4149 47.8152 19.4821 48.0524L21.1239 48.4172L24.3718 48.9169C25.3323 49.0647 26.3025 49.1389 27.2743 49.1389H27.5577C29.2726 49.1389 30.9777 48.8825 32.6167 48.3781L32.7817 48.3274C34.1444 47.9081 35.4447 47.3076 36.6476 46.5421C38.0762 45.6331 39.3505 44.502 40.4227 43.1915L40.502 43.0947C41.5295 41.8388 42.3686 40.4399 42.9927 38.942L43.0371 38.8353C43.5808 37.5305 43.9643 36.1647 44.1792 34.7676L44.38 33.4626C44.5113 32.6089 44.5773 31.7465 44.5773 30.8828V30.3761C44.5773 28.4706 44.1999 26.584 43.467 24.825C43.0063 23.7191 42.4095 22.6749 41.6907 21.7164L41.574 21.5608C40.9318 20.7045 40.2052 19.9149 39.4052 19.2038L39.31 19.1192C38.0179 17.9706 36.5605 17.0228 34.9867 16.3074L34.7696 16.2087C33.8525 15.7919 32.9036 15.4493 31.9317 15.1843L31.8684 15.167C30.2452 14.7243 28.5703 14.5 26.8879 14.5C25.4553 14.5 24.0274 14.6626 22.6315 14.9847L21.7043 15.1987C20.5996 15.4537 19.529 15.8386 18.515 16.3457C17.1362 17.0351 15.8775 17.9423 14.7874 19.0324L14.5583 19.2615C13.8851 19.9346 13.2721 20.6653 12.7262 21.4452L12.141 22.2812C11.3967 23.3444 10.7775 24.4899 10.2955 25.6948C9.81845 26.8874 9.47899 28.1305 9.28368 29.4001L9.2698 29.4903C8.99552 31.2731 8.99552 33.0874 9.2698 34.8702L9.5776 36.8709C10.5202 40.4058 10.4358 44.1361 9.33411 47.6247Z" fill="white"/>
  </g>
  <path d="M20.1367 40.7319C18.9893 40.7319 18.269 40.0605 18.269 38.9985C18.269 38.6934 18.3545 38.2783 18.5132 37.8267L23.3228 24.7285C23.8354 23.3003 24.7021 22.6411 26.0938 22.6411C27.5342 22.6411 28.3887 23.2759 28.9136 24.7163L33.7476 37.8267C33.9185 38.3027 33.9795 38.6323 33.9795 38.9985C33.9795 40.0117 33.2104 40.7319 32.1362 40.7319C31.0986 40.7319 30.5493 40.2559 30.2197 39.1084L29.292 36.3252H22.9321L22.0044 39.0718C21.6626 40.2437 21.1133 40.7319 20.1367 40.7319ZM23.7378 33.4688H28.4375L26.106 26.2544H26.0205L23.7378 33.4688Z" fill="#5BD266"/>
  <path d="M112.06 60V26.64H99.22V17.7H136V26.64H123.16V60H112.06ZM138.862 60V29.52H149.542V60H138.862ZM138.622 25.2V15.6H149.842V25.2H138.622ZM154.947 60V15.84H165.627V60H154.947ZM171.032 60V37.8C171.032 36.44 170.992 35.06 170.912 33.66C170.832 32.26 170.712 30.88 170.552 29.52H180.872L181.472 34.8H180.812C181.692 32.96 182.992 31.52 184.712 30.48C186.432 29.4 188.452 28.86 190.772 28.86C193.012 28.86 194.912 29.4 196.472 30.48C198.072 31.52 199.232 33.18 199.952 35.46H198.932C199.932 33.38 201.372 31.76 203.252 30.6C205.172 29.44 207.312 28.86 209.672 28.86C213.152 28.86 215.752 29.92 217.472 32.04C219.192 34.12 220.052 37.38 220.052 41.82V60H209.312V42.18C209.312 40.3 209.032 38.98 208.472 38.22C207.912 37.42 207.012 37.02 205.772 37.02C204.212 37.02 202.992 37.58 202.112 38.7C201.272 39.82 200.852 41.36 200.852 43.32V60H190.172V42.18C190.172 40.3 189.872 38.98 189.272 38.22C188.712 37.42 187.832 37.02 186.632 37.02C185.072 37.02 183.852 37.58 182.972 38.7C182.132 39.82 181.712 41.36 181.712 43.32V60H171.032ZM240.502 60.66C237.102 60.66 234.162 60.02 231.682 58.74C229.202 57.46 227.282 55.64 225.922 53.28C224.562 50.88 223.882 48.04 223.882 44.76C223.882 41.44 224.562 38.6 225.922 36.24C227.282 33.88 229.202 32.06 231.682 30.78C234.162 29.5 237.102 28.86 240.502 28.86C243.862 28.86 246.782 29.5 249.262 30.78C251.742 32.06 253.662 33.9 255.022 36.3C256.382 38.66 257.062 41.48 257.062 44.76C257.062 48 256.382 50.82 255.022 53.22C253.662 55.62 251.742 57.46 249.262 58.74C246.782 60.02 243.862 60.66 240.502 60.66ZM240.502 52.74C242.262 52.74 243.662 52.12 244.702 50.88C245.742 49.6 246.262 47.56 246.262 44.76C246.262 41.96 245.742 39.94 244.702 38.7C243.662 37.42 242.262 36.78 240.502 36.78C238.702 36.78 237.282 37.42 236.242 38.7C235.202 39.94 234.682 41.96 234.682 44.76C234.682 47.56 235.202 49.6 236.242 50.88C237.282 52.12 238.702 52.74 240.502 52.74ZM276.513 60.66C273.153 60.66 270.213 60.02 267.693 58.74C265.173 57.46 263.213 55.64 261.813 53.28C260.413 50.88 259.713 48.02 259.713 44.7C259.713 41.38 260.413 38.54 261.813 36.18C263.213 33.82 265.173 32.02 267.693 30.78C270.213 29.5 273.153 28.86 276.513 28.86C278.593 28.86 280.633 29.14 282.633 29.7C284.633 30.26 286.253 31.06 287.493 32.1L284.493 39.36C283.533 38.56 282.433 37.96 281.193 37.56C279.993 37.12 278.813 36.9 277.653 36.9C275.453 36.9 273.733 37.56 272.493 38.88C271.293 40.2 270.693 42.14 270.693 44.7C270.693 47.26 271.293 49.22 272.493 50.58C273.733 51.9 275.453 52.56 277.653 52.56C278.773 52.56 279.953 52.36 281.193 51.96C282.433 51.52 283.533 50.92 284.493 50.16L287.493 57.42C286.213 58.42 284.573 59.22 282.573 59.82C280.613 60.38 278.593 60.66 276.513 60.66ZM290.713 60V15.84H301.393V34.86H300.493C301.493 32.9 302.913 31.42 304.753 30.42C306.593 29.38 308.693 28.86 311.053 28.86C314.613 28.86 317.273 29.92 319.033 32.04C320.793 34.16 321.673 37.38 321.673 41.7V60H310.993V42.18C310.993 40.34 310.653 39.02 309.973 38.22C309.333 37.42 308.353 37.02 307.033 37.02C305.313 37.02 303.933 37.56 302.893 38.64C301.893 39.72 301.393 41.14 301.393 42.9V60H290.713Z" fill="white"/>
  <defs>
    <filter id="filter0_d_1687_1034" x="1.25469" y="6.7" width="53.1225" height="52.2388" filterUnits="userSpaceOnUse" color-interpolation-filters="sRGB">
      <feFlood flood-opacity="0" result="BackgroundImageFix"/>
      <feColorMatrix in="SourceAlpha" type="matrix" values="0 0 0 0 0 0 0 0 0 0 0 0 0 0 0 0 0 0 127 0" result="hardAlpha"/>
      <feOffset dx="1" dy="1"/>
      <feGaussianBlur stdDeviation="4.4"/>
      <feComposite in2="hardAlpha" operator="out"/>
      <feColorMatrix type="matrix" values="0 0 0 0 0.102883 0 0 0 0 0.494613 0 0 0 0 0.202277 0 0 0 0.18 0"/>
      <feBlend mode="normal" in2="BackgroundImageFix" result="effect1_dropShadow_1687_1034"/>
      <feBlend mode="normal" in="SourceGraphic" in2="effect1_dropShadow_1687_1034" result="shape"/>
    </filter>
    <linearGradient id="paint0_linear_1687_1034" x1="-4.5" y1="0.499999" x2="74.5" y2="77" gradientUnits="userSpaceOnUse">
      <stop stop-color="#84E36A"/>
      <stop offset="1" stop-color="#39C564"/>
    </linearGradient>
    <linearGradient id="paint1_linear_1687_1034" x1="36.5" y1="28.5" x2="65.5" y2="57" gradientUnits="userSpaceOnUse">
      <stop stop-color="white" stop-opacity="0.68"/>
      <stop offset="1" stop-color="white" stop-opacity="0.69"/>
    </linearGradient>
  </defs>
</svg>