<svg aria-hidden="true" width="123" height="32" viewBox="0 0 123 32" fill="none" xmlns="http://www.w3.org/2000/svg"><g clip-path="url(#clip0_2625_68071)"><path d="M48.0021 16.1302V26.2049H45.141V16.1302H41.9323V13.7516H51.2546V16.1302H48.0021ZM58.364 23.9137C58.4808 23.8781 58.5881 23.8169 58.678 23.7346C58.7679 23.6523 58.8383 23.5509 58.8839 23.438C58.9705 23.2214 59.0571 22.8758 59.0571 22.4438C59.0571 22.0108 59.0143 21.6652 58.8839 21.4486C58.7972 21.2321 58.5801 21.0593 58.364 20.9729C58.1031 20.8865 57.7137 20.8438 57.2367 20.8438H55.7179V24.0865H57.2367C57.7565 24.0438 58.1031 24.0001 58.364 23.9137ZM58.0603 18.6817C58.1601 18.646 58.2508 18.5886 58.3257 18.5137C58.4006 18.4388 58.4579 18.3483 58.4935 18.2486C58.5801 18.0321 58.6239 17.7302 58.6239 17.3409C58.6239 16.9516 58.5812 16.6049 58.4935 16.4321C58.4578 16.3327 58.4004 16.2423 58.3255 16.1676C58.2506 16.0929 58.16 16.0357 58.0603 16.0001C57.8432 15.9137 57.5394 15.87 57.149 15.87H55.719V18.8108H57.1062C57.5394 18.8108 57.887 18.7692 58.0603 18.6817ZM57.4528 13.7516C60.055 13.7516 61.3556 14.8758 61.3556 17.0817C61.3556 17.8604 61.1823 18.5078 60.792 18.9409C60.4443 19.3729 59.9245 19.6321 59.2304 19.6758C60.054 19.7185 60.7053 19.9788 61.1823 20.4972C61.6594 21.0166 61.8754 21.7078 61.8754 22.5729C61.8754 24.9516 60.4016 26.1622 57.4966 26.1622H52.9435V13.7516H57.4528ZM64.7376 24.7788C63.7835 23.7398 63.3076 22.1398 63.3076 19.9788C63.3076 15.6972 65.2146 13.5788 68.987 13.5788C69.941 13.5788 70.8512 13.7078 71.632 13.967L71.1122 16.2593C70.5913 15.9564 69.941 15.8273 69.2041 15.8273C68.3805 15.8273 67.773 15.9564 67.3826 16.1729C66.9494 16.3894 66.6895 16.8214 66.5163 17.3836C66.3419 17.9894 66.2553 18.8108 66.2553 19.935C66.2553 21.0593 66.3419 21.8806 66.5163 22.4428C66.6895 23.0049 66.9922 23.3942 67.3826 23.6534C67.8169 23.87 68.3805 24.0001 69.2041 24.0001C70.0704 24.0001 70.8512 23.8273 71.4587 23.4806L71.9796 25.8166C71.156 26.1622 70.2009 26.2913 69.1174 26.2913C67.1227 26.3788 65.6916 25.8166 64.7376 24.7788ZM20.7292 19.4593C19.342 18.8108 18.6051 18.5078 18.1281 16.7788C17.6072 15.006 17.0435 11.0273 17.0435 7.22144C17.0435 5.62144 17.1302 3.54571 17.3901 2.07584C17.6072 0.994243 17.9109 0.130243 18.7784 0.130243C19.342 0.130243 19.6447 0.475843 19.9485 0.778777C22.0737 3.28651 25.4118 8.99424 27.5798 12.7137C27.7969 13.103 28.0141 13.4924 28.275 13.8817C31.5693 19.5457 35.3855 26.8108 35.9053 28.1078C35.9919 28.2817 36.0358 28.5836 35.8197 28.7137C35.6454 28.8001 35.4721 28.7137 35.3416 28.6273L35.1245 28.4108C30.8751 24.3894 25.9327 21.7078 20.7292 19.4593ZM15.9579 17.7302C16.0884 19.2438 16.175 20.0214 14.9611 21.3185C13.7033 22.6593 10.4946 25.1244 7.19925 27.0273C5.81202 27.806 3.94777 28.8001 2.55948 29.2758C1.51879 29.6652 0.608589 29.7942 0.174346 29.0593C-0.128341 28.5409 0.00107615 28.1078 0.174346 27.7196C1.30167 24.6486 4.59807 18.8982 6.72222 15.135C6.93935 14.7457 7.1554 14.3564 7.41637 13.9681C10.7106 8.30304 15.0477 1.38358 15.9151 0.25931C16.0446 0.08651 16.2617 -0.08629 16.4788 0.0438433C16.6521 0.129177 16.6521 0.34571 16.6082 0.475843C16.6082 0.51851 16.5654 0.692377 16.5226 0.778777C15.1344 6.53024 15.3076 12.1078 15.9579 17.7302ZM16.8253 22.7457C18.0831 21.8817 18.6907 21.4049 20.4244 21.838C22.202 22.27 25.9755 23.7836 29.2269 25.6865C30.6142 26.4652 32.349 27.5894 33.5191 28.5836C34.3865 29.3196 34.9502 29.967 34.517 30.7457C34.2133 31.2214 33.779 31.3516 33.3458 31.3942C30.0944 31.9564 23.4598 32.0001 19.1677 32.0001H17.8232C11.2754 32.0001 3.08035 31.6972 1.69313 31.4817C1.47601 31.438 1.2161 31.3516 1.2161 31.0924C1.2161 30.8758 1.38937 30.7894 1.51986 30.7457C1.51986 30.7884 1.73591 30.703 1.82255 30.703C7.50301 29.0604 12.2722 26.1185 16.8253 22.7457ZM82.2143 13.7516C84.8155 13.7516 86.116 14.8758 86.116 17.0817C86.116 17.8604 85.9428 18.5089 85.5524 18.9409C85.2058 19.3729 84.686 19.6332 83.9908 19.6769C84.8155 19.7196 85.5096 19.9788 85.9428 20.4982C86.4198 21.0166 86.6369 21.7089 86.6369 22.5729C86.6369 24.9516 85.162 26.1622 82.257 26.1622H77.7039V13.7516H82.2143ZM82.8207 18.6817C82.9207 18.6461 83.0116 18.5888 83.0867 18.5139C83.1618 18.439 83.2193 18.3484 83.255 18.2486C83.3405 18.0332 83.3844 17.7302 83.3844 17.3409C83.3844 16.9516 83.3416 16.6049 83.255 16.4332C83.2193 16.3334 83.1618 16.2428 83.0867 16.1679C83.0116 16.093 82.9207 16.0357 82.8207 16.0001C82.6036 15.9148 82.3009 15.871 81.8667 15.871H80.4356V18.8545H81.8239C82.3009 18.8118 82.6047 18.7681 82.8207 18.6817ZM83.1245 23.9137C83.2412 23.8781 83.3485 23.8169 83.4384 23.7346C83.5284 23.6523 83.5987 23.5509 83.6443 23.438C83.732 23.2214 83.8186 22.8758 83.8186 22.4438C83.8186 22.0108 83.7758 21.6652 83.6443 21.4486C83.5587 21.2332 83.3416 21.0593 83.1245 20.9729C82.9073 20.8876 82.4742 20.8438 81.9971 20.8438H80.4794V24.0865H81.9971C82.4742 24.0438 82.8635 24.0012 83.1245 23.9137ZM90.8852 23.7836L90.2349 26.1622H87.2444L91.5366 13.7089H94.356L98.6043 26.1622H95.5261L94.8319 23.7836H90.8852ZM92.88 16.8652L91.4927 21.7953H94.2672L92.881 16.8641L92.88 16.8652ZM102.249 13.7516L107.236 21.0593V13.7526H109.967V26.206H107.713L102.726 18.8972V26.206H99.9937V13.7516H102.249ZM114.996 20.1089V26.206H112.178V13.7516H114.996V19.5468L118.465 13.7516H121.674L117.772 19.806L122.064 26.206H118.725L114.996 20.1089Z" fill="currentColor"></path></g><defs><clipPath id="clip0_2625_68071"><rect width="123" height="32" fill="currentColor"></rect></clipPath></defs></svg>